<svg xmlns="http://www.w3.org/2000/svg" viewBox="0 0 512 509.659" fill="currentColor">
<path d="M109.095 181.505c2.223-19.532 18.316-34.578 37.955-35.483l167.194-.001a40.612 40.612 0 0130.095 17.427 42.152 42.152 0 016.39 14.915l49.135-24.364a2.185 2.185 0 013.141 1.674v27.628l.001.096a4.571 4.571 0 01-2.837 4.229 177620.936 177620.936 0 00-135.63 67.336l135.324 66.948a4.695 4.695 0 013.142 4.08v27.685a2.266 2.266 0 01-3.613 1.821c-16.12-8.162-32.464-15.854-48.462-24.18a63.503 63.503 0 01-4.282 11.225 40.813 40.813 0 01-26.098 20.135 44.994 44.994 0 01-11.221.919l-155.833.003c-3.51 0-7.04 0-10.53-.266-18.089-2.705-32.049-17.363-33.869-35.565v-26.77a5.935 5.935 0 014.08-4.879c27.791-13.732 55.521-27.587 83.353-41.258a32412.61 32412.61 0 00-84.17-41.748 5.41 5.41 0 01-3.223-4.918c-.042-8.876-.185-17.792-.042-26.689zm30.975.184c-1.674 3.367-.898 7.263-1.041 10.896 30.608 15.12 60.99 30.321 91.536 45.339 30.185-14.963 60.384-29.927 90.596-44.89 0-2.714.123-5.428 0-8.162a10.203 10.203 0 00-10.096-8.734h-.106l-161.565.001a10.082 10.082 0 00-9.345 5.55h.021zm-1.041 135.406c.142 3.673-.654 7.631 1.122 11.039a10.204 10.204 0 009.284 5.405l161.667.002.081-.001c3.618 0 6.961-1.94 8.754-5.081 2.04-3.57 1.102-7.855 1.305-11.773-30.26-14.936-60.48-30.118-90.801-44.89a43915.126 43915.126 0 00-91.432 45.299h.02z"/>
</svg>
