<svg xmlns="http://www.w3.org/2000/svg" id="Trenex_Vector" width="1080" height="1080" viewBox="0 0 1080 1080"><g id="Tracing"><path d="M21.185,169.78h17.6q445.589-.014,891.178.252c24.326.035,46.794-4.079,68.757-14.356,24.12-11.287,47.956-.306,57.57,24.343,5.829,14.945-.252,26.672-8.794,37.464-8.311,10.5-19.947,15.558-33.473,12.786-7.454-1.528-14.947-3.028-21.986-7.015-13.737-7.778-28.887-9.6-44.782-9.583q-406.207.33-812.415.058c-4.345,0-8.69,0-12.554,0-3.169,5.042.756,6.843,2.826,9.169q53.333,59.946,106.735,119.831c5.423,6.1,11.934,8.826,20.2,9.348,39.356,2.486,78.735.675,118.1,1.112,28.681.318,57.39.738,86.045-.183,13.458-.433,17.128,3.836,17.09,17.214q-.688,241.357-.341,482.719c0,4.837,0,9.674,0,15.648,21.343-7.319,39.585-18.906,59.106-27.679,16.686-7.5,33.528-14.655,50.361-21.821,22.687-9.659,32.857-27.825,33.053-51.367.222-26.7-1.616-53.408-1.71-80.115q-.375-107.189.088-214.378c.084-19.721-2.787-38.165-12.621-55.8-9.907-17.772-6.648-35.13,6.586-47.782,14.378-13.746,30.96-15.781,49.18-6.036,16.69,8.927,24.147,32.015,14.341,52.068-10.17,20.8-12.4,42.137-12.29,64.764.5,106.456-.062,212.917.609,319.372.144,22.758-8.465,36.749-29.215,46.243-55.991,25.615-111.392,52.519-167.042,78.88-10.412,4.932-20.875,9.772-32.316,12.542-2.938-5.964-1.68-11.812-1.683-17.429q-.137-253.027.164-506.054c.029-12.757-2.494-17.357-16.442-17.009-50.529,1.262-101.1.792-151.644,1.53-26.751.39-49.217-8.354-66.937-28.445-35.982-40.8-71.721-81.808-107.743-122.571-21.065-23.838-42.471-47.374-63.762-71.012C21.736,175.051,20.069,173.941,21.185,169.78Z" fill="#e91d23"/><path d="M225.734,259.989c13.43,0,24.507,0,35.585,0,182.8-.029,365.6-.343,548.391.282,22.321.077,41.3-9.071,61.24-15.544,16.377-5.316,36.791,5.974,43.869,19.625a39.8,39.8,0,0,1-5.015,44.483c-13.12,15.147-29.24,20.138-46.731,10.649-24.457-13.268-50-16.046-77.136-15.7-63.678.8-127.372.255-191.06.23-25.52-.01-29.635,4.029-29.586,29.426q.384,199.054.768,398.109a202.111,202.111,0,0,1-.512,20.4c-2.245,22.474-14.25,34.081-36.637,37.718-7.106,1.155-7.417-2.179-7.481-6.882-.137-10.205-.081-20.414-.081-30.621,0-143.886-.208-287.773.317-431.658.05-13.638-3.812-16.916-16.989-16.777-62.708.662-125.428.464-188.142.138-12.572-.066-24.884,2.453-37.734.648C252.192,300.77,238.528,283.272,225.734,259.989Z" fill="#eb1b24"/></g></svg>