<svg xmlns="http://www.w3.org/2000/svg" xmlns:xlink="http://www.w3.org/1999/xlink" id="Trenex_Vector" x="0px" y="0px" viewBox="0 0 959.5 903.2" xml:space="preserve">

<g id="Tracing">
	<path d="M200.8,338.2h6.9c115.7,0,231.4,0,347.1,0.1c9.2,0.2,18.4-1.7,26.8-5.6c9.4-4.4,18.7-0.1,22.4,9.5   c2.3,5.8-0.1,10.4-3.4,14.6c-3,4.1-8.1,6.1-13,5c-3-0.4-5.9-1.4-8.6-2.7c-5.4-3-11.3-3.7-17.4-3.7c-105.5,0.1-211,0.1-316.4,0h-4.9   c-1.2,2,0.3,2.7,1.1,3.6c13.8,15.6,27.7,31.1,41.6,46.7c2,2.3,4.9,3.6,7.9,3.6c15.3,1,30.7,0.3,46,0.4c11.2,0.1,22.4,0.3,33.5-0.1   c5.2-0.2,6.7,1.5,6.7,6.7c-0.2,62.7-0.2,125.3-0.1,188v6.1c8.3-2.9,15.4-7.4,23-10.8c6.5-2.9,13.1-5.7,19.6-8.5   c8.8-3.8,12.8-10.8,12.9-20c0.1-10.4-0.6-20.8-0.7-31.2c-0.1-27.8-0.1-55.7,0-83.5c0-7.7-1.1-14.9-4.9-21.7   c-3.9-6.9-2.6-13.7,2.6-18.6c5.6-5.4,12.1-6.1,19.2-2.4c6.5,3.5,9.4,12.5,5.6,20.3c-4,8.1-4.8,16.4-4.8,25.2   c0.2,41.5,0,82.9,0.2,124.4c0.1,8.9-3.3,14.3-11.4,18c-21.8,10-43.4,20.5-65.1,30.7c-4,2.1-8.2,3.7-12.6,4.9   c-1.1-2.3-0.7-4.6-0.7-6.8c0-65.7,0-131.4,0.1-197.1c0-5-1-6.8-6.4-6.6c-19.7,0.5-39.4,0.3-59.1,0.6c-10.4,0.2-19.2-3.3-26.1-11.1   c-14-15.9-27.9-31.9-42-47.7c-8.2-9.3-16.5-18.5-24.8-27.7C200.7,340.2,200.4,339.2,200.8,338.2z" fill="rgb(233, 29, 35)"/>
	<path d="M280.4,373.4h13.9c71.2,0,142.4-0.1,213.6,0.1c8.7,0,16.1-3.5,23.9-6.1c6.4-2.1,14.3,2.3,17.1,7.6   c3,5.6,2.2,12.5-2,17.3c-5.1,5.9-11.4,7.8-18.2,4.1c-9.5-5.2-19.5-6.3-30-6.1c-24.8,0.3-49.6,0.1-74.4,0.1   c-9.9,0-11.5,1.6-11.5,11.5c0.1,51.7,0.2,103.4,0.3,155.1c0.1,2.6,0,5.3-0.2,7.9c-0.9,8.8-5.6,13.3-14.3,14.7   c-2.8,0.5-2.9-0.8-2.9-2.7c-0.1-4,0-8,0-11.9c0-56-0.1-112.1,0.1-168.1c0-5.3-1.5-6.6-6.6-6.5c-24.4,0.3-48.9,0.2-73.3,0.1   c-4.9,0-9.7,1-14.7,0.3C290.7,389.2,285.4,382.4,280.4,373.4z" fill="rgb(235, 27, 36)"/>
	<path d="M521.2,562.2l24.7,24.3c-9.1,0.6-16.5,1.8-22.4-6c-4.4-5.8-10.4-10.5-15.6-15.6c-1-1.3-2.5-2.3-4.2-2.7   c-7.9-1.2-8.9-0.4-8.9,7.8c0,4.5-0.2,9.1,0,13.6c0.2,4.3-2.8,3.5-4.9,3.1c-2.4-0.5-6.8,2.6-6.8-3c-0.1-18.7,0-37.5-0.1-56.2   c0-2.6,1-3.1,3.3-3.1c14,0.1,28-0.1,42,0.2c8.6,0.2,11.8,3.9,11.8,12.5c0,4,0,7.9,0,11.9c0,8.9-3.7,12.8-12.5,13.2   C526.1,562.2,524.4,562.2,521.2,562.2z" fill="rgb(251, 250, 250)"/>
	<path d="M637.1,544.4c0,11.8,0,23.6,0,35.4c0,7.6,0,7.5-7.4,7.1c-2.5-0.1-3.3-0.8-3.2-3.3c0.1-18.7,0-37.4,0-56.2   c0-1.2-0.5-3,1.6-2.9c3.4,0.2,6.9-1.2,10,2.1c7.4,7.9,15.1,15.4,22.7,23c5.7,5.8,11.3,11.6,16.8,17.3c2.3-1.4,1.5-3.1,1.5-4.4   c0.1-11.5,0.2-23.1,0-34.6c-0.1-5.1,3.4-3.4,5.8-3.5c2.2,0,5.4-1.6,5.4,3.2c-0.2,18.5-0.1,37.1-0.1,55.6c0,1.2,0.5,3.2-1.2,3.3   c-3.4,0.2-6.9,1.2-10-2c-11.8-12-23.8-23.8-35.7-35.7c-1.6-1.8-3.1-3.6-4.5-5.6L637.1,544.4z" fill="rgb(251, 250, 249)"/>
	<path d="M556.6,555.4c0-8.9,0.1-17.8-0.1-26.7c0-2.9,0.4-4.4,3.9-4.4c16.1,0.2,32.1,0.2,48.2,0   c4.8-0.1,3.1,3.2,3.2,5.4c0,2.3,1.5,5.4-3.3,5.3c-11.7-0.2-23.4,0.1-35.2-0.2c-3.6-0.1-4.8,0.8-4.8,4.6c0.1,9.8-0.1,9.9,9.7,9.9   c3.4,0,6.8,0,10.2,0c5.8,0,8.4,3.9,6.3,9.2c-0.8,2.1-2.5,1.3-3.8,1.3c-6.2,0.1-12.5,0.2-18.7,0c-2.7-0.1-3.4,0.8-3.6,3.5   c-0.6,12.4-0.7,12.4,11.6,12.4c9.3,0,18.5,0.2,27.8-0.1c4.2-0.1,5.2,1.4,4.9,5.2c-0.3,3.1,0.7,6.2-4.6,6.1   c-15.7-0.4-31.4-0.2-47.1,0c-3.8,0-4.8-1.2-4.7-4.8C556.7,573.2,556.6,564.3,556.6,555.4z" fill="rgb(250, 248, 247)"/>
	<path d="M708.5,555.5c0-9.1,0.1-18.2-0.1-27.3c-0.1-2.9,0.6-3.9,3.7-3.9c16.1,0.2,32.2,0.2,48.3,0   c5.1-0.1,3.4,3.3,3.6,5.7c0.2,2.6,0.7,5.2-3.7,5c-11.5-0.3-23.1,0.1-34.6-0.2c-4-0.1-5.7,0.6-5.6,5.2c0.3,9.3,0,9.3,9.3,9.3   c3.6,0.2,7.2,0.2,10.8-0.1c5.5-0.7,6.5,1.6,6.4,6.5c-0.1,3.8-1.5,4.3-4.7,4.2c-6.1-0.2-12.1,0-18.2-0.1c-2.3,0-3.7,0.6-3.4,3.1   c0,0.2,0,0.4,0,0.6c-0.7,12.1-0.7,12.1,11.3,12.1c9.7,0,19.3,0.3,29-0.1c4.9-0.2,4,2.7,4,5.4c0,2.9,1.1,6-4.1,5.9   c-15.9-0.3-31.8-0.2-47.7-0.1c-3.2,0-4.3-0.9-4.2-4.1C708.6,573.7,708.5,564.6,708.5,555.5z" fill="rgb(249, 247, 245)"/>
	<path d="M837.4,586.8c-4.8,0-8.3-0.2-11.8,0c-2.5,0.3-4.8-0.9-6.1-3c-5.2-7-10.6-13.7-16.4-21.1   c-4.5,5.7-9.4,10.7-13,16.6c-4.5,7.2-10.3,9-18.8,6.8c7-8.9,13.6-17.7,20.8-26.1c3.3-3.9,3-6.2-0.3-9.9c-7.1-8-13.7-16.5-21.2-25.7   c5.2,0,9.4,0.2,13.7-0.1c2.4-0.2,3.3,1.6,4.4,2.9c4.8,6,9.6,12.2,14.8,18.8c3.8-4.9,7.9-9.2,10.7-14.2c4.3-7.5,10.4-8.9,18.6-6.9   c-6.5,8.4-12.7,16.8-19.3,25c-2.1,2.7-2.3,4.3,0,7C821.3,566.5,828.9,576.1,837.4,586.8z" fill="rgb(250, 248, 247)"/>
	<path d="M678.1,634.8c0-7.1,0-14.3,0-21.4c0-1.5-0.7-3.5,2.2-3.7c3.2-0.2,2.6,2,2.6,3.8c0,8.7,0.1,17.4,0,26.1   c0,1.4,1.1,3.6-1.5,4.1c-1.9,0.4-3.8-0.5-4.7-2.2c-5.7-7.9-11.4-15.8-18.2-25c0,8.7,0.1,15.7-0.1,22.8c0,1.7,1.2,4.6-2.5,4.4   c-3.7-0.2-2.1-3-2.1-4.7c-0.2-8.3-0.1-16.6,0-25c0-1.4-1.2-3.6,1.4-4.3c2.3-0.6,3.9,0.5,5.2,2.4c5.5,7.7,11,15.2,16.6,22.9   L678.1,634.8z" fill="rgb(243, 238, 236)"/>
	<path d="M589.7,618.8c-3.2,1.5-5-0.3-7.3-2.4c-5-4.8-14.2-4.4-19.1,0.4c-4.9,5.1-5.2,13.1-0.6,18.6   c4.5,5,13.7,5.9,19.1,2c1.5-1.1,2.8-2.6,3.6-4.3c1.3-2.8,1.4-4.7-2.6-4.3c-2.8,0.2-5.7,0-8.5,0c-1.2,0-2.3-0.3-2.3-1.8   c0-1.6,1.2-1.6,2.4-1.6c4.9,0,9.8,0,14.7,0c3.7,0,2.5,2.8,2.3,4.5c-0.8,8.2-10,14.6-19.7,14c-8.7-0.5-16-7-16.8-14.8   c-1-9.1,4.1-16.8,12.4-19.1C577.1,607.3,586.1,610.8,589.7,618.8z" fill="rgb(243, 237, 235)"/>
	<path d="M536.2,643.1c-3.3,1.5-5.3,0.5-5.9-2.4c-0.9-4.2-3.3-5.3-7.3-4.8c-2.1,0.3-4.2,0.3-6.2,0   c-3.5-0.4-5.8,0.5-6.5,4.3c-0.6,3.1-2.5,4.5-6.2,3.1c4.2-10.5,8.3-21.1,12.6-31.6c1-1.9,3.4-2.6,5.3-1.6c0.8,0.4,1.4,1,1.7,1.8   C527.9,622.2,532,632.7,536.2,643.1z" fill="rgb(244, 239, 238)"/>
	<path d="M738.9,618.8c-2.4,1-5.2,0.3-6.8-1.8c-5.4-5.4-14.1-5.4-19.5,0c-5.1,5.1-5.4,13.4-0.6,18.9   c5.3,5.6,14.2,5.7,19.7,0.4c0,0,0,0,0.1-0.1c2.1-2.2,4.1-3,6.9-2.2c-2.7,7.1-10.5,11.1-19.3,9.8c-8.5-1.2-15.1-7.7-15.6-15.5   c-0.6-8.6,4.3-15.9,12.1-18.3C725.4,607.2,734.3,610.4,738.9,618.8z" fill="rgb(242, 238, 236)"/>
	<path d="M612.3,626.8c0-0.6,0-1.1,0-1.7c0-16.9,0-16.9,17.2-15.3c1.2,0.1,2.9-0.5,2.8,1.7c0,2.2-1.7,1.6-2.9,1.6   c-2.1,0.2-4.2,0.2-6.2,0c-4.8-0.7-6.1,0.9-6.3,6c-0.4,6.9,3.8,5.1,7.4,5.5c2.2,0.3,6.3-1.9,6.2,2c-0.1,3-4,1-6.2,1.5   c-2.3,0.5-5.8-1.3-6.7,1.1c-1.1,2.8-0.5,6.3-0.3,9.5c0.1,1.8,1.9,1.5,3.1,1.5c3.2,0,6.4,0,9.6,0c1.2,0,2.2,0.2,2.2,1.8   c0,1.6-1,1.8-2.2,1.8c-5.1,0-10.2-0.1-15.3,0c-2.7,0-2.5-1.7-2.5-3.4C612.3,635.8,612.3,631.3,612.3,626.8z" fill="rgb(243, 238, 236)"/>
	<path d="M772.8,625.8c5.5-4.3,4.2-14.6,14.8-16.7c-2.3,3.9-3.7,6.5-5.3,9.1c-4.1,7-8.8,13.7-7.2,22.6   c0.3,1.5,0.1,3.1-2.2,3.1c-1.6,0-2.7-0.5-2.4-2.2c2-11.7-5.6-19.8-10.6-28.9c-0.5-1.2-1-2.3-1.4-3.6   C768.4,611.2,767.4,621.4,772.8,625.8z" fill="rgb(242, 238, 236)"/>
	<path d="M510.5,551.8h-10.8c-0.9,0-2.2,0.4-2.8-0.1c-4.6-3.8-1-8.9-2-13.3c-0.5-2.1,0.2-3.5,2.9-3.5   c8.5,0.1,17,0,25.5,0.1c5.1,0,5.6,3.5,5.4,7.4c-0.2,4,1.2,9-5.2,9.3C519.2,552,514.8,551.8,510.5,551.8L510.5,551.8z" fill="rgb(14, 15, 15)"/>
	<path d="M520.3,615.4l6.7,17h-13.2C515.4,626.5,517.6,620.8,520.3,615.4z" fill="rgb(18, 16, 15)"/>
</g>
</svg>