<svg xmlns="http://www.w3.org/2000/svg" xmlns:xlink="http://www.w3.org/1999/xlink" id="Trenex_Vector" x="0px" y="0px" viewBox="0 0 959.5 903.2" xml:space="preserve">

<g id="Tracing">
	<path d="M8.2,247.1h10.2c171.7,0,343.4,0,515.1,0.1c13.7,0.3,27.3-2.6,39.7-8.3c13.9-6.5,27.7-0.2,33.3,14.1   c3.4,8.6-0.1,15.4-5.1,21.7c-4.4,6.1-12,9-19.3,7.4c-4.4-0.7-8.7-2-12.7-4c-7.9-4.5-16.7-5.5-25.9-5.5c-156.5,0.1-313,0.1-469.6,0   h-7.3c-1.8,2.9,0.4,4,1.6,5.3C88.9,300.9,109.4,324,130,347c3,3.4,7.2,5.3,11.7,5.4c22.7,1.4,45.5,0.4,68.3,0.6   c16.6,0.2,33.2,0.4,49.7-0.1c7.8-0.2,9.9,2.2,9.9,9.9c-0.3,93-0.3,186-0.2,279v9c12.3-4.2,22.9-10.9,34.2-16   c9.6-4.3,19.4-8.5,29.1-12.6c13.1-5.6,19-16.1,19.1-29.7c0.1-15.4-0.9-30.9-1-46.3c-0.1-41.3-0.1-82.6,0-123.9   c0-11.4-1.6-22.1-7.3-32.3c-5.7-10.3-3.8-20.3,3.8-27.6c8.3-7.9,17.9-9.1,28.4-3.5c9.6,5.2,14,18.5,8.3,30.1   c-5.9,12-7.2,24.4-7.1,37.4c0.3,61.5,0,123.1,0.4,184.6c0.1,13.2-4.9,21.2-16.9,26.7c-32.4,14.8-64.4,30.4-96.5,45.6   c-6,3.1-12.2,5.5-18.7,7.2c-1.7-3.4-1-6.8-1-10.1c-0.1-97.5,0-195,0.1-292.5c0-7.4-1.4-10-9.5-9.8c-29.2,0.7-58.4,0.4-87.6,0.9   c-15.5,0.2-28.4-4.8-38.7-16.4C87.7,339.3,67,315.6,46.2,292c-12.2-13.8-24.5-27.4-36.9-41C8.1,250.1,7.7,248.5,8.2,247.1z" fill="rgb(233, 29, 35)"/>
	<path d="M126.5,299.2H147c105.7,0,211.3-0.2,317,0.2c12.9,0,23.9-5.2,35.4-9c9.5-3.1,21.3,3.5,25.4,11.3   c4.4,8.4,3.3,18.5-2.9,25.7c-7.6,8.8-16.9,11.6-27,6.2c-14.1-7.7-28.9-9.3-44.6-9.1c-36.8,0.5-73.6,0.1-110.4,0.1   c-14.7,0-17.1,2.3-17.1,17c0.1,76.7,0.3,153.4,0.4,230.1c0.1,3.9,0,7.9-0.3,11.8c-1.3,13-8.2,19.7-21.2,21.8   c-4.1,0.7-4.3-1.3-4.3-4c-0.1-5.9,0-11.8,0-17.7c0-83.2-0.1-166.3,0.2-249.5c0-7.9-2.2-9.8-9.8-9.7c-36.2,0.4-72.5,0.3-108.7,0.1   c-7.3,0-14.4,1.4-21.8,0.4C141.8,322.8,133.9,312.6,126.5,299.2z" fill="rgb(235, 27, 36)"/>
	<path d="M483.8,579.4l36.6,36c-13.5,0.9-24.4,2.6-33.2-8.9c-6.6-8.6-15.4-15.5-23.2-23.2c-1.5-2-3.7-3.4-6.2-4   c-11.8-1.8-13.2-0.6-13.2,11.6c0,6.7-0.3,13.5,0.1,20.2c0.3,6.3-4.2,5.3-7.3,4.6c-3.5-0.7-10,3.9-10.1-4.4   c-0.1-27.8,0-55.6-0.1-83.4c0-3.9,1.5-4.6,5-4.6c20.8,0.2,41.6-0.2,62.3,0.3c12.7,0.3,17.5,5.8,17.6,18.5c0,5.9,0,11.8,0,17.7   c-0.1,13.2-5.5,18.9-18.6,19.6C491,579.5,488.5,579.4,483.8,579.4z" fill="rgb(251, 250, 250)"/>
	<path d="M655.8,552.9c0,17.5,0,35.1,0,52.6c0,11.2,0,11.1-11,10.5c-3.6-0.2-4.8-1.2-4.8-4.9c0.1-27.8,0-55.6,0.1-83.4   c0-1.8-0.8-4.5,2.3-4.3c5.1,0.3,10.3-1.7,14.9,3.1c10.9,11.7,22.4,22.8,33.7,34.2c8.4,8.6,16.7,17.2,25,25.7   c3.4-2.1,2.2-4.6,2.2-6.6c0.1-17.1,0.3-34.2,0-51.4c-0.2-7.6,5.1-5.1,8.6-5.1c3.3,0,8-2.4,8,4.8c-0.3,27.5-0.1,55-0.2,82.5   c0,1.8,0.8,4.7-1.8,4.8c-5.1,0.2-10.3,1.7-14.9-3c-17.5-17.8-35.3-35.3-53-53c-2.4-2.6-4.6-5.4-6.7-8.3L655.8,552.9z" fill="rgb(251, 250, 249)"/>
	<path d="M536.2,569.3c0-13.2,0.1-26.4-0.1-39.6c-0.1-4.3,0.5-6.6,5.8-6.5c23.8,0.3,47.7,0.3,71.5,0   c7.2-0.1,4.7,4.7,4.7,8c0.1,3.3,2.2,8.1-4.9,7.9c-17.4-0.3-34.8,0.1-52.2-0.2c-5.3-0.1-7.2,1.1-7.1,6.9   c0.2,14.6-0.1,14.6,14.4,14.6c5.1,0,10.1,0,15.2,0c8.6,0,12.4,5.7,9.3,13.6c-1.2,3.1-3.7,2-5.7,2c-9.3,0.1-18.5,0.3-27.8,0   c-4.1-0.1-5.1,1.3-5.3,5.2c-0.9,18.3-1,18.3,17.2,18.3c13.7,0,27.5,0.3,41.2-0.1c6.2-0.2,7.8,2,7.3,7.7c-0.4,4.7,1.1,9.2-6.8,9   c-23.3-0.5-46.6-0.4-69.9-0.1c-5.6,0.1-7.1-1.7-7-7.2C536.5,595.7,536.2,582.5,536.2,569.3z" fill="rgb(250, 248, 247)"/>
	<path d="M761.6,569.5c0-13.5,0.2-27-0.1-40.4c-0.1-4.2,0.9-5.8,5.5-5.8c23.9,0.2,47.8,0.3,71.6,0   c7.6-0.1,5,4.9,5.3,8.5c0.3,3.9,1,7.7-5.5,7.5c-17.1-0.4-34.3,0.1-51.4-0.3c-5.9-0.1-8.5,0.8-8.2,7.7c0.5,13.8,0.1,13.8,13.7,13.8   c5.3,0.3,10.7,0.3,16-0.1c8.1-1.1,9.7,2.4,9.4,9.7c-0.2,5.6-2.2,6.4-7,6.2c-9-0.3-18,0-27-0.1c-3.4-0.1-5.5,0.8-5.1,4.7   c0,0.3,0,0.6,0,0.8c-1.1,18-1.1,18,16.8,18c14.3,0,28.7,0.4,43-0.2c7.3-0.3,5.9,4,5.9,8c0,4.2,1.6,8.9-6.1,8.7   c-23.6-0.4-47.2-0.3-70.8-0.1c-4.7,0-6.3-1.3-6.2-6.1C761.8,596.4,761.6,583,761.6,569.5z" fill="rgb(249, 247, 245)"/>
	<path d="M953,615.9c-7.1,0-12.3-0.2-17.5,0.1c-3.6,0.4-7.2-1.4-9.1-4.5c-7.7-10.3-15.8-20.4-24.4-31.3   c-6.7,8.4-13.9,15.9-19.3,24.6c-6.6,10.7-15.3,13.4-27.8,10.1c10.4-13.2,20.2-26.3,30.9-38.8c4.9-5.7,4.4-9.2-0.4-14.6   c-10.5-11.9-20.3-24.5-31.5-38.1c7.7,0,14,0.3,20.3-0.1c3.6-0.2,4.9,2.3,6.6,4.3c7.2,9,14.2,18.1,21.9,27.9   c5.6-7.3,11.7-13.7,15.9-21.1c6.4-11.1,15.5-13.1,27.7-10.2c-9.6,12.5-18.9,25-28.7,37.1c-3.2,3.9-3.4,6.4,0,10.4   C929.1,585.7,940.3,600.1,953,615.9z" fill="rgb(250, 248, 247)"/>
	<path d="M716.5,687.1c0-10.6,0-21.2,0-31.8c0-2.3-1-5.2,3.2-5.4c4.7-0.2,3.9,2.9,3.9,5.6c0,12.9,0.1,25.8-0.1,38.7   c0,2.1,1.7,5.3-2.2,6.1c-2.8,0.6-5.7-0.8-7-3.3c-8.4-11.8-17-23.4-27-37.1c0,12.9,0.1,23.4-0.1,33.9c0,2.6,1.8,6.8-3.7,6.6   c-5.4-0.2-3.1-4.5-3.2-7c-0.2-12.3-0.2-24.7,0-37c0-2.1-1.7-5.3,2-6.3c3.4-0.9,5.8,0.7,7.8,3.5c8.1,11.4,16.4,22.6,24.6,33.9   L716.5,687.1z" fill="rgb(243, 238, 236)"/>
	<path d="M585.4,663.4c-4.7,2.2-7.5-0.4-10.8-3.6c-7.4-7.1-21.1-6.5-28.3,0.7c-7.2,7.6-7.6,19.4-1,27.5   c6.7,7.4,20.4,8.8,28.4,2.9c2.3-1.6,4.1-3.8,5.4-6.3c1.9-4.1,2.1-6.9-3.9-6.4c-4.2,0.3-8.4,0-12.6,0.1c-1.9,0-3.4-0.4-3.4-2.7   c0-2.3,1.8-2.4,3.5-2.4c7.3,0,14.6,0,21.9,0c5.4,0,3.7,4.1,3.4,6.7c-1.2,12.1-14.8,21.7-29.2,20.8c-12.8-0.8-23.7-10.3-25-21.9   c-1.5-13.5,6-25,18.4-28.4C566.7,646.3,580,651.6,585.4,663.4z" fill="rgb(243, 237, 235)"/>
	<path d="M505.9,699.5c-4.9,2.3-7.8,0.8-8.8-3.6c-1.3-6.2-5-7.9-10.8-7.2c-3.1,0.4-6.2,0.4-9.2,0   c-5.2-0.6-8.6,0.7-9.7,6.3c-0.9,4.7-3.7,6.7-9.2,4.6c6.2-15.6,12.3-31.3,18.7-46.9c1.5-2.8,5-3.9,7.8-2.4c1.1,0.6,2,1.5,2.5,2.7   C493.8,668.4,499.8,684,505.9,699.5z" fill="rgb(244, 239, 238)"/>
	<path d="M806.8,663.4c-3.6,1.5-7.7,0.4-10.1-2.6c-8-8-20.9-8-28.9,0c-7.6,7.6-8,19.9-0.9,28c7.9,8.2,21.1,8.5,29.3,0.6   c0,0,0.1-0.1,0.1-0.1c3.2-3.2,6-4.4,10.2-3.3c-4.1,10.5-15.6,16.4-28.6,14.6c-12.6-1.8-22.4-11.5-23.2-23   c-0.9-12.8,6.3-23.7,18-27.1C786.8,646.1,799.9,651,806.8,663.4z" fill="rgb(242, 238, 236)"/>
	<path d="M618.9,675.2c0-0.8,0-1.7,0-2.5c0-25.1,0-25.1,25.5-22.7c1.7,0.2,4.2-0.8,4.2,2.5c0,3.2-2.5,2.4-4.2,2.4   c-3.1,0.3-6.2,0.3-9.2,0c-7.2-1.1-9,1.4-9.4,8.9c-0.5,10.2,5.6,7.5,11,8.2c3.3,0.4,9.3-2.8,9.2,2.9c-0.1,4.5-6,1.5-9.2,2.2   c-3.4,0.8-8.6-1.9-9.9,1.6c-1.6,4.2-0.7,9.4-0.4,14.1c0.2,2.7,2.8,2.2,4.6,2.2c4.8,0,9.5,0,14.3,0c1.8,0,3.3,0.3,3.3,2.7   c0,2.4-1.5,2.6-3.3,2.6c-7.6,0-15.1-0.1-22.7,0c-4,0.1-3.7-2.6-3.7-5.1C618.9,688.7,618.9,682,618.9,675.2z" fill="rgb(243, 238, 236)"/>
	<path d="M857,673.8c8.1-6.3,6.3-21.7,22-24.8c-3.4,5.8-5.6,9.7-7.8,13.5c-6.1,10.3-13.1,20.4-10.7,33.5   c0.4,2.2,0.1,4.6-3.3,4.6c-2.4,0-4-0.8-3.6-3.3c3-17.3-8.3-29.4-15.7-42.9c-0.8-1.7-1.5-3.5-2.1-5.3   C850.6,652.1,849,667.2,857,673.8z" fill="rgb(242, 238, 236)"/>
	<path d="M467.8,564h-16c-1.4,0-3.3,0.6-4.1-0.1c-6.8-5.6-1.5-13.2-3-19.8c-0.7-3.1,0.2-5.2,4.3-5.1   c12.6,0.2,25.2,0.1,37.9,0.1c7.6,0,8.3,5.1,8,11c-0.3,5.9,1.8,13.3-7.7,13.8C480.7,564.2,474.3,563.9,467.8,564L467.8,564z" fill="rgb(14, 15, 15)"/>
	<path d="M482.3,658.3l9.9,25.2h-19.6C475.2,674.8,478.4,666.4,482.3,658.3z" fill="rgb(18, 16, 15)"/>
</g>
</svg>