<svg xmlns="http://www.w3.org/2000/svg" id="Trenex_Vector" width="959.527" height="903.174" viewBox="0 0 959.527 903.174"><g id="Tracing"><path d="M236.783,353.5h4.525q114.54,0,229.081.065a40.484,40.484,0,0,0,17.674-3.691c6.2-2.9,12.328-.079,14.8,6.258,1.5,3.841-.065,6.856-2.26,9.63a8.4,8.4,0,0,1-8.6,3.287,18.639,18.639,0,0,1-5.652-1.8c-3.531-2-7.425-2.467-11.511-2.464q-104.418.085-208.835.015h-3.227c-.814,1.3.195,1.759.727,2.357q13.708,15.41,27.436,30.8a7.09,7.09,0,0,0,5.193,2.4c10.117.639,20.24.173,30.358.286,7.373.082,14.752.189,22.118-.047,3.46-.111,4.4.986,4.394,4.425q-.177,62.041-.088,124.085v4.022c5.486-1.881,10.175-4.86,15.193-7.115,4.29-1.928,8.619-3.767,12.946-5.609,5.832-2.483,8.446-7.153,8.5-13.2.057-6.863-.415-13.729-.439-20.594q-.1-27.554.022-55.107c.022-5.069-.716-9.81-3.244-14.345-2.547-4.568-1.709-9.03,1.693-12.282,3.7-3.534,7.958-4.057,12.642-1.552,4.29,2.295,6.207,8.23,3.686,13.384-2.614,5.346-3.186,10.832-3.159,16.648.129,27.365-.016,54.732.157,82.1.037,5.85-2.176,9.447-7.51,11.887-14.393,6.585-28.634,13.5-42.939,20.277a43.3,43.3,0,0,1-8.307,3.224c-.755-1.533-.432-3.037-.433-4.481q-.035-65.042.042-130.083c.008-3.279-.641-4.462-4.226-4.372-12.989.324-25.988.2-38.981.393-6.876.1-12.651-2.147-17.206-7.312-9.25-10.487-18.436-21.029-27.7-31.507-5.415-6.128-10.917-12.178-16.39-18.254A1.458,1.458,0,0,1,236.783,353.5Z" fill="#e91d23"/><path d="M289.364,376.684h9.147c46.989-.007,93.978-.088,140.966.073,5.738.02,10.617-2.332,15.742-4,4.21-1.366,9.458,1.536,11.277,5.045a10.23,10.23,0,0,1-1.289,11.434c-3.373,3.894-7.516,5.177-12.012,2.738-6.287-3.411-12.853-4.125-19.829-4.037-16.368.205-32.741.065-49.112.059-6.56,0-7.618,1.035-7.606,7.564q.1,51.168.2,102.336a52.048,52.048,0,0,1-.132,5.243c-.577,5.777-3.663,8.761-9.418,9.7-1.826.3-1.906-.561-1.923-1.769-.035-2.624-.02-5.248-.02-7.872,0-36.986-.054-73.973.081-110.959.013-3.506-.98-4.349-4.367-4.313-16.119.17-32.242.119-48.363.035-3.232-.016-6.4.631-9.7.167C296.165,387.167,292.653,382.669,289.364,376.684Z" fill="#eb1b24"/><path d="M448.273,501.3l16.289,16.012c-5.988.413-10.869,1.16-14.768-3.939-2.929-3.831-6.838-6.914-10.324-10.317a4.9,4.9,0,0,0-2.749-1.767c-5.229-.784-5.861-.275-5.862,5.14,0,3-.115,6,.03,8.991.137,2.806-1.865,2.337-3.266,2.06-1.573-.311-4.469,1.717-4.482-1.977-.041-12.365.014-24.73-.054-37.1-.01-1.745.685-2.052,2.209-2.04,9.243.068,18.49-.075,27.729.127,5.663.124,7.769,2.572,7.812,8.232q.03,3.935,0,7.869c-.028,5.863-2.45,8.416-8.267,8.7C451.466,501.343,450.352,501.3,448.273,501.3Z" fill="#fbfafa"/><path d="M524.778,489.537q0,11.7,0,23.392c0,5,0,4.918-4.879,4.678-1.623-.08-2.146-.555-2.14-2.165.045-12.356.016-24.713.033-37.071,0-.784-.339-2,1.031-1.923,2.251.127,4.583-.768,6.616,1.4,4.863,5.188,9.983,10.135,14.971,15.207,3.745,3.81,7.447,7.663,11.12,11.447,1.507-.937.981-2.042.987-2.928.051-7.614.137-15.23-.014-22.841-.067-3.39,2.253-2.274,3.832-2.286,1.451-.011,3.573-1.06,3.539,2.127-.128,12.231-.045,24.464-.068,36.7,0,.8.355,2.1-.812,2.153-2.262.1-4.569.778-6.621-1.318-7.77-7.936-15.713-15.7-23.55-23.577a43.24,43.24,0,0,1-2.967-3.679Z" fill="#fbfaf9"/><path d="M471.589,496.823c0-5.864.059-11.73-.038-17.592-.032-1.933.244-2.918,2.573-2.893q15.909.175,31.82,0c3.19-.038,2.071,2.108,2.1,3.551.029,1.489.962,3.584-2.163,3.524-7.734-.149-15.474.04-23.208-.1-2.372-.042-3.2.5-3.173,3.048.078,6.5-.06,6.505,6.383,6.508q3.369,0,6.739,0c3.809,0,5.519,2.555,4.129,6.046-.542,1.362-1.638.874-2.52.886-4.117.059-8.238.113-12.352,0-1.807-.052-2.269.556-2.356,2.324-.4,8.156-.46,8.153,7.649,8.154,6.115,0,12.234.148,18.342-.059,2.749-.093,3.452.9,3.233,3.416-.18,2.074.472,4.09-3.044,4.011-10.352-.231-20.714-.157-31.07-.031-2.5.03-3.17-.765-3.1-3.2C471.708,508.555,471.591,502.687,471.589,496.823Z" fill="#faf8f7"/><path d="M571.843,496.89c0-6,.073-11.994-.04-17.989-.036-1.887.389-2.576,2.428-2.558,10.619.1,21.241.14,31.858-.015,3.385-.05,2.231,2.174,2.349,3.778.126,1.72.442,3.405-2.454,3.332-7.616-.191-15.243.036-22.861-.12-2.618-.053-3.776.375-3.669,3.406.218,6.137.026,6.144,6.115,6.142a53.727,53.727,0,0,0,7.114-.06c3.6-.487,4.294,1.06,4.2,4.309-.072,2.5-.986,2.836-3.1,2.762-3.994-.141-8,0-11.993-.062-1.524-.025-2.426.377-2.251,2.077a2.347,2.347,0,0,1,0,.375c-.482,8-.483,8,7.48,8,6.372,0,12.752.2,19.113-.078,3.236-.14,2.616,1.772,2.613,3.56,0,1.888.717,3.948-2.711,3.883-10.491-.2-20.989-.128-31.483-.036-2.1.019-2.81-.562-2.761-2.723C571.93,508.885,571.842,502.886,571.843,496.89Z" fill="#f9f7f5"/><path d="M656.959,517.559c-3.143,0-5.479-.1-7.8.032a4.268,4.268,0,0,1-4.053-1.981c-3.428-4.6-7.027-9.065-10.833-13.931-2.981,3.734-6.195,7.081-8.593,10.936-2.951,4.744-6.8,5.965-12.386,4.5,4.633-5.863,9-11.714,13.745-17.248,2.178-2.542,1.962-4.108-.171-6.512-4.692-5.291-9.034-10.893-14-16.96,3.418,0,6.224.12,9.012-.047,1.613-.1,2.2,1.028,2.922,1.931,3.2,3.981,6.314,8.03,9.736,12.409,2.5-3.254,5.2-6.078,7.087-9.366,2.84-4.952,6.88-5.843,12.308-4.545-4.276,5.56-8.413,11.112-12.76,16.494-1.415,1.75-1.51,2.835-.019,4.624C646.338,504.119,651.323,510.513,656.959,517.559Z" fill="#faf8f7"/><path d="M551.795,549.221c0-4.71-.019-9.421.016-14.131.007-1.018-.444-2.318,1.425-2.413,2.081-.106,1.726,1.29,1.73,2.485.017,5.741.054,11.482-.026,17.222-.013.931.744,2.374-1,2.735a2.848,2.848,0,0,1-3.1-1.48c-3.738-5.229-7.556-10.4-12.007-16.5,0,5.727.048,10.394-.034,15.059-.02,1.154.792,3.031-1.63,2.924s-1.389-2-1.411-3.093c-.108-5.489-.092-10.982-.012-16.472.014-.951-.76-2.378.894-2.809,1.514-.395,2.569.31,3.458,1.554,3.61,5.052,7.279,10.063,10.926,15.089Z" fill="#f3eeec"/><path d="M493.456,538.668c-2.1.958-3.323-.2-4.785-1.6-3.293-3.149-9.368-2.881-12.6.291a9.236,9.236,0,0,0-.425,12.245c2.98,3.3,9.058,3.909,12.611,1.289a7.386,7.386,0,0,0,2.385-2.821c.862-1.832.931-3.074-1.734-2.861-1.859.148-3.74.021-5.611.023-.824,0-1.527-.2-1.515-1.189.013-1.036.807-1.086,1.576-1.087,3.243,0,6.486.008,9.729.006,2.41,0,1.629,1.823,1.518,2.958-.525,5.384-6.6,9.651-12.992,9.258-5.709-.35-10.559-4.6-11.115-9.741-.648-5.985,2.674-11.111,8.173-12.612C485.137,531.06,491.079,533.405,493.456,538.668Z" fill="#f3edeb"/><path d="M458.13,554.714c-2.186,1.013-3.486.354-3.9-1.6-.579-2.741-2.208-3.514-4.8-3.185a17.032,17.032,0,0,1-4.105,0c-2.3-.271-3.827.318-4.308,2.818-.4,2.073-1.636,2.96-4.073,2.046,2.759-6.957,5.449-13.94,8.319-20.849a2.577,2.577,0,0,1,4.611.1C452.709,540.91,455.394,547.828,458.13,554.714Z" fill="#f4efee"/><path d="M591.953,538.666a3.813,3.813,0,0,1-4.5-1.167,9.1,9.1,0,0,0-13.263,12.45,9.215,9.215,0,0,0,13.078.2c1.406-1.441,2.687-1.979,4.525-1.484-1.807,4.683-6.954,7.305-12.73,6.483-5.614-.8-9.955-5.112-10.3-10.236-.387-5.7,2.815-10.523,8.008-12.063C583.053,530.986,588.883,533.145,591.953,538.666Z" fill="#f2eeec"/><path d="M508.363,543.927c0-.374,0-.748,0-1.122,0-11.142,0-11.146,11.331-10.091.772.072,1.885-.341,1.87,1.107-.016,1.425-1.1,1.059-1.886,1.088a22.629,22.629,0,0,1-4.108-.015c-3.194-.472-4,.614-4.171,3.945-.231,4.525,2.494,3.354,4.893,3.638,1.455.173,4.158-1.257,4.1,1.3-.049,2-2.658.669-4.087,1-1.5.344-3.822-.829-4.419.721-.711,1.847-.317,4.166-.195,6.268.069,1.2,1.225.988,2.063,1,2.119.022,4.238.011,6.357.021.8,0,1.461.153,1.464,1.2,0,1.064-.671,1.176-1.472,1.176-3.366,0-6.732-.043-10.1.016-1.757.031-1.624-1.138-1.627-2.265C508.362,549.909,508.368,546.918,508.363,543.927Z" fill="#f3eeec"/><path d="M614.278,543.274c3.624-2.81,2.783-9.649,9.8-11.04-1.5,2.583-2.474,4.292-3.474,5.987-2.714,4.6-5.808,9.064-4.758,14.887.18,1,.033,2.024-1.448,2.054-1.064.022-1.8-.339-1.61-1.456,1.314-7.712-3.691-13.087-6.978-19.1a24.684,24.684,0,0,1-.912-2.343C611.414,533.637,610.708,540.358,614.278,543.274Z" fill="#f2eeec"/><path d="M441.182,494.463h-7.11c-.623,0-1.463.258-1.836-.049-3.018-2.485-.656-5.878-1.349-8.791-.33-1.386.107-2.32,1.92-2.29,5.611.093,11.225.023,16.838.042,3.36.012,3.7,2.282,3.572,4.874-.126,2.624.8,5.91-3.431,6.144-2.86.158-5.735.03-8.6.03Z" fill="#0e0f0f"/><path d="M447.638,536.4l4.4,11.187H443.3A74.6,74.6,0,0,1,447.638,536.4Z" fill="#12100f"/></g></svg>